<svg width="14" height="12" viewBox="0 0 14 12" fill="none" xmlns="http://www.w3.org/2000/svg">
<path d="M5.20832 11.6555C4.64425 11.6555 4.1008 11.435 3.69491 11.0361L0.163509 7.56586C-0.0519297 7.35416 -0.0549204 7.00788 0.15678 6.79254C0.36848 6.57711 0.714763 6.57401 0.930202 6.78571L4.4615 10.2559C4.68313 10.4737 4.98776 10.5838 5.29741 10.5581C5.60705 10.5322 5.88935 10.3733 6.0719 10.1219L13.0106 0.565433C13.188 0.321048 13.53 0.266788 13.7744 0.444202C14.0188 0.621723 14.073 0.963733 13.8956 1.20812L6.95694 10.7644C6.58715 11.2737 6.01539 11.5958 5.3882 11.648C5.32817 11.653 5.26803 11.6555 5.20832 11.6555Z" fill="white"/>
</svg>
